# xmcd
#
# Track frame offsets:
#	150
#	12852
#	31555
#
# Disc length: 644 seconds
#
# Revision: 0
# Processed by: cddbd v1.5PL3 Copyright (c) Steve Scherf et al.
# Submitted via: dBpowerAMP V4.0
#
DISCID=11028203
DTITLE=LeAnn Rimes - Blue [CD Single)
DYEAR=1998
DGENRE=Country
TTITLE0=Blue
TTITLE1=How Do I Live (Single Version)
TTITLE2=Undeniable
EXTD=
EXTT0=
EXTT1=
EXTT2=
PLAYORDER=
